<svg xmlns="http://www.w3.org/2000/svg" version="1.1" xmlns:xlink="http://www.w3.org/1999/xlink" viewBox="0 0 200 200"><rect width="200" height="200" fill="url('#gradient')"></rect><defs><linearGradient id="gradient" gradientTransform="rotate(45 0.5 0.5)"><stop offset="0%" stop-color="#171717"></stop><stop offset="100%" stop-color="#2c2a2a"></stop></linearGradient></defs><g><g fill="#ffffff" transform="matrix(4.429704397981254,0,0,4.429704397981254,10.12321287182327,132.98043889421822)" stroke="#0c0502" stroke-width="0"><path d="M9.98 0L9.15-2.66L4.45-2.66L3.63 0L-0.03 0L5.19-14.22L8.41-14.22L13.66 0L9.98 0ZM6.80-10.23L5.27-5.30L8.33-5.30L6.80-10.23ZM18.02-10.57L18.02 0L14.72 0L14.72-10.57L18.02-10.57ZM14.52-13.29L14.52-13.29Q14.52-13.99 15.03-14.44Q15.54-14.89 16.35-14.89Q17.16-14.89 17.67-14.44Q18.17-13.99 18.17-13.29Q18.17-12.59 17.67-12.14Q17.16-11.69 16.35-11.69Q15.54-11.69 15.03-12.14Q14.52-12.59 14.52-13.29ZM29.01-8.57L29.01-6.03L23.62-6.03L23.62-2.64L29.99-2.64L29.99 0L20.20 0L20.20-14.22L30.01-14.22L30.01-11.57L23.62-11.57L23.62-8.57L29.01-8.57ZM34.03-10.57L35.52-7.66L37.05-10.57L40.47-10.57L37.69-5.42L40.61 0L37.17 0L35.51-3.13L33.88 0L30.42 0L33.35-5.42L30.58-10.57L34.03-10.57Z"></path></g></g></svg>